<?xml version="1.0" standalone="no"?>
<!DOCTYPE svg PUBLIC "-//W3C//DTD SVG 20010904//EN"
 "http://www.w3.org/TR/2001/REC-SVG-20010904/DTD/svg10.dtd">
<svg version="1.0" xmlns="http://www.w3.org/2000/svg"
 width="1350.000000pt" height="1341.000000pt" viewBox="0 0 1350.000000 1341.000000"
 preserveAspectRatio="xMidYMid meet">
<metadata>
Created by potrace 1.10, written by Peter Selinger 2001-2011
</metadata>
<g transform="translate(0.000000,1341.000000) scale(0.100000,-0.100000)"
fill="#000000" stroke="none">
<path d="M6580 13369 c-25 -6 -90 -21 -145 -34 -55 -14 -110 -25 -123 -25 -13
0 -44 -12 -70 -27 -26 -16 -84 -35 -129 -45 -46 -9 -94 -25 -108 -37 -15 -11
-47 -23 -73 -27 -26 -3 -67 -17 -91 -30 -24 -13 -75 -33 -115 -45 -39 -12 -92
-32 -118 -45 -26 -13 -54 -24 -62 -24 -8 0 -45 -16 -82 -35 -37 -19 -75 -35
-84 -35 -9 0 -42 -13 -71 -29 -30 -16 -75 -35 -99 -42 -25 -7 -63 -25 -85 -39
-22 -15 -58 -33 -80 -40 -22 -7 -62 -25 -90 -40 -27 -15 -66 -31 -85 -35 -19
-4 -46 -17 -60 -30 -14 -13 -44 -28 -66 -34 -23 -6 -59 -23 -80 -37 -21 -15
-57 -33 -79 -41 -22 -7 -51 -24 -65 -37 -14 -13 -41 -27 -60 -31 -19 -4 -53
-20 -74 -36 -22 -16 -45 -29 -51 -29 -7 0 -31 -14 -55 -31 -23 -17 -57 -36
-74 -42 -17 -5 -47 -22 -66 -37 -19 -15 -46 -31 -60 -35 -14 -4 -36 -18 -50
-30 -14 -13 -46 -33 -72 -44 -27 -11 -48 -24 -48 -29 0 -5 -21 -20 -47 -33
-27 -13 -63 -36 -81 -51 -18 -16 -37 -28 -43 -28 -6 0 -36 -18 -68 -40 -31
-22 -62 -40 -67 -40 -6 0 -19 -10 -30 -21 -10 -12 -43 -38 -73 -58 -29 -20
-70 -47 -91 -61 -20 -14 -58 -39 -85 -57 -26 -18 -54 -41 -62 -53 -8 -11 -21
-20 -29 -20 -8 0 -24 -10 -36 -22 -12 -13 -41 -36 -64 -53 -104 -74 -130 -94
-197 -151 -40 -33 -82 -67 -94 -75 -12 -9 -47 -38 -76 -66 -30 -27 -64 -56
-75 -64 -42 -30 -255 -232 -452 -429 -233 -233 -346 -357 -455 -496 -16 -21
-57 -70 -91 -109 -34 -39 -67 -82 -74 -95 -7 -14 -21 -31 -31 -37 -9 -7 -31
-34 -48 -60 -39 -61 -94 -136 -126 -175 -14 -16 -25 -35 -25 -42 0 -7 -16 -27
-35 -46 -19 -19 -35 -40 -35 -47 0 -7 -13 -27 -28 -45 -15 -18 -34 -46 -41
-62 -7 -16 -24 -43 -37 -60 -40 -48 -71 -97 -95 -146 -11 -25 -29 -54 -40 -65
-10 -11 -25 -38 -34 -60 -9 -22 -27 -51 -40 -65 -13 -14 -26 -39 -30 -57 -3
-18 -20 -49 -36 -69 -16 -20 -33 -53 -39 -74 -5 -20 -19 -45 -30 -55 -10 -9
-26 -38 -35 -64 -8 -26 -26 -62 -39 -82 -13 -19 -30 -55 -37 -79 -7 -25 -25
-62 -41 -83 -15 -21 -32 -62 -38 -91 -7 -33 -20 -62 -35 -76 -14 -13 -25 -32
-25 -41 0 -29 -30 -109 -55 -148 -13 -20 -26 -56 -30 -81 -4 -25 -20 -70 -35
-100 -16 -31 -33 -81 -38 -111 -6 -31 -22 -76 -35 -101 -13 -26 -28 -72 -32
-104 -4 -32 -20 -84 -36 -115 -15 -32 -28 -70 -27 -86 1 -36 -28 -165 -45
-201 -8 -15 -22 -83 -31 -152 -10 -69 -26 -150 -37 -180 -10 -30 -23 -109 -30
-175 -6 -66 -17 -163 -25 -215 -8 -52 -16 -108 -19 -125 -2 -16 -9 -54 -14
-84 -6 -30 -14 -219 -17 -420 -7 -398 6 -744 30 -827 8 -27 20 -103 26 -169
20 -216 31 -299 45 -340 18 -53 32 -126 40 -200 9 -80 24 -142 46 -186 10 -20
23 -76 29 -125 8 -63 18 -99 35 -125 13 -21 26 -60 31 -95 4 -32 24 -103 45
-156 22 -54 39 -107 39 -118 0 -11 11 -42 23 -68 13 -26 30 -69 37 -97 7 -27
23 -68 36 -90 12 -22 25 -56 29 -75 6 -33 20 -64 115 -265 21 -44 42 -91 45
-105 4 -14 17 -38 29 -55 12 -16 30 -52 40 -80 10 -27 26 -59 36 -70 10 -11
25 -42 35 -68 10 -27 31 -64 47 -84 15 -20 28 -47 28 -60 0 -13 11 -34 24 -46
12 -12 28 -38 35 -58 6 -20 22 -46 36 -59 13 -12 27 -35 30 -51 4 -16 20 -42
36 -59 16 -16 37 -46 45 -67 9 -21 26 -49 38 -63 13 -14 39 -55 60 -92 20 -37
52 -88 72 -113 19 -26 40 -58 46 -71 6 -13 18 -26 27 -29 9 -3 29 -30 44 -60
15 -30 31 -55 37 -55 5 0 21 -17 35 -38 38 -56 97 -135 120 -159 11 -12 35
-41 53 -65 55 -72 113 -141 207 -248 50 -56 99 -114 110 -129 91 -124 807
-811 845 -811 5 0 11 -8 14 -18 4 -10 23 -28 44 -40 21 -11 61 -44 90 -71 29
-28 64 -57 77 -63 13 -7 38 -32 55 -56 45 -63 101 -77 116 -30 3 11 3 44 0 72
-4 30 -2 64 4 81 15 40 27 143 40 341 6 93 17 198 26 234 19 82 42 283 43 376
1 38 9 104 20 145 10 41 22 103 25 138 3 36 13 76 22 89 23 35 11 77 -39 132
-56 63 -147 175 -175 217 -12 18 -30 42 -40 52 -9 9 -35 41 -57 70 -22 29 -55
70 -73 91 -17 20 -32 41 -32 46 0 4 -18 29 -40 55 -22 26 -40 51 -40 55 0 6
-49 67 -88 109 -11 11 -29 40 -42 65 -12 25 -34 59 -49 77 -32 38 -79 105
-105 147 -59 95 -110 168 -121 173 -7 2 -16 19 -19 37 -4 18 -18 44 -32 57
-14 13 -36 47 -48 74 -13 28 -30 56 -39 63 -9 8 -21 30 -28 50 -6 20 -24 51
-39 67 -15 17 -31 44 -35 62 -3 18 -20 49 -36 69 -16 20 -29 44 -29 54 0 9
-13 35 -29 56 -15 22 -34 58 -41 79 -7 22 -26 59 -41 83 -16 24 -34 64 -39 89
-6 25 -21 59 -34 74 -13 15 -27 45 -31 65 -4 21 -18 57 -31 80 -13 23 -31 68
-40 100 -8 33 -28 78 -44 101 -17 23 -30 54 -30 70 0 33 -31 133 -55 179 -8
16 -15 43 -15 61 0 18 -13 69 -29 113 -17 45 -37 122 -46 173 -9 51 -25 119
-36 153 -11 33 -26 126 -34 205 -7 79 -19 158 -26 174 -6 17 -11 40 -10 52 1
11 -5 56 -14 98 -13 64 -16 158 -16 563 0 275 5 544 11 617 19 217 11 307 -27
313 -33 5 -47 -26 -61 -137 -19 -156 -24 -291 -24 -736 -1 -394 12 -687 33
-795 7 -30 15 -82 20 -115 16 -117 47 -270 62 -305 8 -19 18 -71 22 -115 4
-48 16 -100 29 -130 12 -27 27 -70 33 -95 7 -25 17 -67 24 -95 7 -27 21 -63
31 -80 10 -16 18 -43 18 -60 0 -16 9 -43 20 -60 11 -16 20 -41 20 -55 0 -14 6
-37 14 -52 8 -15 17 -42 21 -60 4 -18 18 -49 31 -68 13 -19 24 -43 24 -53 0
-16 45 -122 85 -200 8 -16 15 -34 15 -41 0 -6 16 -36 35 -66 19 -30 35 -62 35
-70 0 -24 78 -173 100 -190 10 -8 22 -28 26 -45 8 -32 47 -99 64 -110 5 -3 10
-13 10 -21 0 -9 11 -30 25 -48 14 -18 25 -39 25 -46 0 -17 59 -110 70 -110 5
0 12 -10 15 -22 4 -13 22 -45 40 -73 18 -27 49 -77 70 -110 21 -33 53 -77 70
-97 18 -21 38 -55 45 -77 7 -22 23 -45 36 -52 13 -7 24 -20 24 -29 0 -10 26
-49 58 -87 57 -69 99 -124 159 -210 17 -25 42 -57 56 -72 14 -14 32 -40 41
-58 9 -18 25 -37 37 -43 11 -6 23 -19 27 -29 16 -38 88 -140 109 -151 12 -7
39 -37 60 -67 21 -30 51 -70 67 -89 27 -33 28 -37 22 -112 -4 -42 -8 -95 -10
-117 -2 -22 -6 -47 -9 -55 -10 -25 -36 -193 -31 -201 7 -11 -16 -237 -27 -265
-5 -14 -14 -77 -19 -142 -6 -64 -20 -163 -31 -220 -11 -56 -19 -123 -18 -150
3 -63 -7 -91 -37 -98 -28 -7 -40 1 -46 31 -2 11 -15 23 -33 29 -39 11 -46 14
-72 30 -34 19 -143 123 -143 135 0 6 -12 14 -27 17 -16 4 -46 26 -69 48 -58
58 -253 239 -292 271 -17 15 -32 35 -32 46 0 10 -10 24 -23 30 -24 12 -274
264 -335 338 -20 24 -59 67 -85 94 -26 27 -53 60 -60 73 -7 12 -55 71 -107
129 -52 59 -103 121 -113 138 -9 18 -43 64 -76 102 -32 39 -61 80 -65 93 -4
12 -11 22 -16 22 -5 0 -34 38 -64 83 -30 46 -62 90 -71 97 -8 7 -15 20 -15 30
0 9 -9 25 -21 36 -12 10 -29 33 -38 50 -9 18 -34 58 -57 90 -23 33 -45 70 -49
84 -4 14 -14 33 -22 42 -11 12 -14 28 -10 48 6 26 4 30 -17 30 -23 0 -56 28
-56 47 0 6 -20 40 -45 76 -25 37 -45 71 -45 77 0 5 -11 33 -25 62 -14 28 -25
57 -25 65 0 7 -9 17 -20 23 -10 6 -24 29 -31 53 -6 23 -26 65 -45 93 -19 28
-34 56 -34 62 0 6 -9 26 -20 44 -11 18 -20 40 -20 49 0 9 -6 22 -14 28 -7 6
-28 49 -45 94 -18 45 -38 93 -46 107 -7 14 -20 48 -28 75 -25 79 -42 122 -54
136 -13 17 -33 85 -33 116 0 12 -11 39 -25 59 -13 20 -28 52 -31 73 -4 20 -15
55 -26 79 -10 24 -18 52 -18 62 0 22 -55 200 -76 247 -8 17 -14 39 -14 48 0 9
-5 25 -10 36 -6 10 -12 46 -14 79 -2 33 -8 66 -14 73 -17 20 -32 87 -42 187
-5 52 -16 111 -24 130 -22 54 -46 201 -46 279 0 38 -9 132 -20 208 -32 218
-35 274 -34 688 2 338 5 411 23 545 12 85 24 173 26 196 20 225 28 284 39 314
8 19 19 71 26 115 21 149 66 349 84 378 7 12 21 58 30 102 10 44 22 94 27 111
5 17 9 37 9 44 0 26 43 155 57 171 7 8 13 32 13 53 0 20 11 59 25 86 14 27 25
54 25 60 0 6 10 24 21 39 12 16 18 34 15 40 -4 6 4 35 18 64 13 29 28 66 32
82 4 17 13 39 20 50 8 11 14 28 14 38 0 11 13 36 29 56 15 20 31 54 34 75 4
24 18 51 37 71 16 17 30 39 30 48 0 10 4 25 9 35 6 9 19 44 31 76 12 33 34 75
51 93 16 19 29 40 29 48 0 20 39 107 59 130 9 11 25 46 36 78 10 32 24 61 30
65 7 4 20 22 30 41 9 19 30 52 46 74 16 22 29 46 29 53 0 7 15 28 33 47 19 18
47 60 63 92 16 33 36 67 46 77 9 9 27 36 39 60 12 23 45 67 74 98 29 30 55 66
58 80 6 25 69 115 122 174 14 17 35 47 47 67 11 20 31 42 44 48 13 6 24 16 24
23 0 7 34 54 76 103 41 50 78 97 82 105 3 8 42 51 85 97 44 45 92 100 106 122
15 22 53 59 84 81 31 23 57 48 57 56 0 8 32 45 70 82 39 37 113 108 164 159
52 50 108 99 124 107 16 8 45 35 66 60 21 25 43 46 51 46 7 0 22 10 32 23 10
12 38 38 63 57 25 19 79 67 121 107 42 40 82 73 88 73 6 0 54 39 107 86 54 47
116 94 139 104 23 10 45 25 48 34 3 8 21 22 39 29 18 8 46 25 61 38 121 103
144 119 230 164 31 17 82 51 113 78 31 26 61 47 68 47 7 0 31 14 52 31 22 18
64 43 94 57 30 14 72 40 93 59 20 18 44 33 53 33 8 0 30 11 47 24 18 13 55 35
83 49 27 14 56 33 63 41 8 9 20 16 27 16 8 0 43 18 78 40 35 22 69 40 76 40 6
0 40 15 73 34 34 18 73 37 87 41 14 4 39 18 56 31 17 13 49 30 72 38 38 14
247 111 304 142 14 8 36 14 47 14 12 0 21 5 21 10 0 18 162 90 202 90 25 0 45
7 59 21 21 21 210 109 235 109 7 0 34 11 60 25 26 14 59 25 74 25 14 0 35 7
46 15 10 8 26 15 35 15 8 0 30 11 49 25 24 18 47 25 78 25 32 0 52 7 73 25 16
13 46 27 67 30 20 3 64 15 97 26 62 22 143 48 231 76 29 8 57 12 63 9 8 -5 10
-41 5 -124 -4 -64 -8 -139 -9 -167 -2 -77 -25 -275 -37 -325 -22 -96 -27 -131
-32 -256 -6 -143 -22 -300 -39 -384 -6 -30 -11 -62 -10 -70 1 -8 -4 -46 -12
-85 -8 -38 -16 -124 -19 -190 -3 -66 -10 -136 -16 -155 -6 -19 -11 -78 -11
-130 -1 -52 -4 -99 -9 -105 -18 -21 -44 -234 -42 -340 1 -49 -19 -256 -29
-305 -5 -25 -11 -72 -14 -105 -4 -57 -15 -185 -33 -377 -5 -48 -13 -93 -19
-100 -12 -14 -26 -147 -43 -403 -16 -229 -16 -232 -40 -282 -18 -38 -19 -50
-10 -79 9 -26 9 -43 -1 -71 -7 -21 -13 -83 -15 -138 -2 -99 -13 -195 -53 -470
-11 -77 -21 -181 -21 -230 0 -114 -16 -243 -35 -289 -9 -20 -13 -47 -9 -61 3
-14 1 -53 -5 -88 -6 -34 -18 -150 -26 -257 -8 -107 -19 -209 -24 -226 -5 -17
-14 -80 -20 -140 -7 -60 -16 -147 -22 -194 -5 -47 -9 -123 -9 -170 0 -65 -5
-95 -22 -130 -16 -35 -20 -62 -19 -125 1 -44 -3 -105 -9 -135 -6 -30 -13 -95
-16 -145 -8 -174 -12 -222 -23 -261 -5 -21 -15 -84 -22 -138 -6 -55 -15 -110
-19 -122 -5 -12 -11 -93 -15 -180 -8 -193 -9 -207 -29 -314 -8 -47 -22 -186
-31 -310 -8 -124 -22 -250 -30 -280 -8 -30 -12 -63 -9 -73 3 -10 1 -24 -5 -30
-16 -20 -30 -98 -21 -121 8 -22 -12 -287 -30 -387 -6 -30 -10 -68 -10 -84 0
-16 -12 -46 -26 -67 -20 -28 -25 -44 -20 -65 8 -34 8 -10 3 -240 -3 -144 -8
-197 -18 -210 -13 -15 -23 -82 -32 -213 -17 -243 -30 -374 -43 -430 -19 -87
-33 -205 -44 -375 -12 -183 -27 -330 -40 -380 -6 -22 -15 -65 -19 -95 -5 -30
-15 -70 -22 -88 -11 -26 -11 -36 -1 -52 6 -11 12 -44 12 -75 0 -50 2 -56 30
-70 18 -9 30 -23 30 -35 0 -11 10 -25 23 -32 30 -16 185 -13 245 5 26 8 81 20
122 27 86 14 186 34 280 57 36 8 81 17 100 20 83 9 228 36 265 48 22 7 85 19
139 26 55 6 138 23 185 36 96 27 91 26 251 48 63 9 144 24 180 35 36 10 92 23
125 29 67 12 210 4 224 -13 5 -6 14 -110 20 -231 6 -121 17 -258 25 -305 32
-190 47 -588 24 -608 -7 -5 -33 -12 -58 -15 -88 -11 -125 -20 -139 -31 -8 -6
-41 -14 -75 -18 -103 -11 -236 -37 -264 -52 -39 -20 -125 -36 -191 -36 -32 0
-81 -6 -107 -14 -73 -21 -204 -48 -244 -50 -36 -3 -91 -13 -240 -46 -47 -10
-107 -22 -135 -25 -74 -9 -224 -34 -360 -60 -66 -13 -167 -31 -224 -40 -58 -9
-112 -20 -120 -24 -9 -5 -45 -11 -81 -15 -77 -8 -186 -30 -254 -51 -28 -8 -75
-16 -105 -16 -31 -1 -64 -6 -75 -11 -10 -5 -48 -14 -84 -19 -36 -5 -86 -16
-110 -25 -25 -8 -57 -12 -71 -9 -15 3 -46 -1 -70 -10 -24 -8 -68 -15 -98 -15
-30 0 -64 -5 -76 -12 -12 -6 -38 -12 -58 -14 -20 -2 -56 -10 -81 -19 -26 -8
-61 -15 -80 -15 -37 1 -78 -3 -123 -14 -23 -5 -37 -1 -60 18 l-30 24 19 35
c13 26 17 46 12 74 -9 56 -9 58 3 178 12 124 26 219 40 285 6 25 10 73 11 108
0 35 4 93 9 130 6 37 15 122 21 190 6 67 17 144 25 170 13 47 34 207 41 312 7
130 27 310 39 375 8 39 19 138 26 220 6 83 16 158 21 168 5 9 7 21 4 26 -3 5
-1 31 4 57 13 59 29 178 34 254 14 171 28 301 41 364 8 39 20 132 25 206 6 74
15 155 20 180 6 25 12 82 14 127 3 45 9 90 14 100 5 10 15 83 22 163 27 323
39 416 55 448 11 22 18 65 20 130 8 221 17 331 35 407 11 44 24 125 29 180 24
239 42 393 51 435 19 88 31 263 19 303 -21 77 -133 164 -235 183 -21 4 -53 13
-71 21 -18 7 -44 13 -57 13 -14 0 -33 8 -43 19 -10 10 -47 26 -81 34 -35 9
-79 25 -98 36 -18 11 -50 23 -71 27 -34 5 -82 23 -191 70 -18 8 -42 14 -53 14
-10 0 -48 13 -84 29 -35 16 -79 32 -97 36 -18 4 -47 16 -64 26 -33 20 -148 59
-175 59 -9 0 -22 6 -28 14 -6 7 -33 19 -59 26 -75 19 -121 35 -195 68 -26 12
-66 25 -90 28 -23 4 -71 19 -107 35 -36 15 -81 30 -101 33 -20 4 -58 18 -85
31 -27 14 -55 25 -62 25 -7 0 -45 17 -85 37 -48 24 -92 39 -133 43 -45 5 -73
15 -107 39 -25 17 -54 31 -65 31 -20 0 -100 24 -147 45 -16 7 -61 23 -100 36
-38 12 -80 29 -93 37 -12 8 -50 17 -85 19 -57 5 -66 3 -92 -19 -15 -14 -25
-29 -22 -35 4 -6 34 -13 67 -17 47 -6 68 -14 95 -37 24 -22 58 -37 112 -50 43
-11 99 -30 124 -44 26 -14 58 -25 71 -25 14 0 52 -14 84 -30 32 -17 80 -35
106 -40 26 -5 77 -23 112 -40 36 -16 74 -30 84 -30 28 0 83 -21 112 -42 14 -9
55 -24 91 -31 36 -8 79 -23 95 -34 16 -12 58 -26 94 -33 36 -6 84 -23 108 -36
23 -14 71 -31 106 -38 35 -8 92 -27 127 -44 35 -17 81 -33 102 -37 20 -4 47
-15 60 -25 12 -10 60 -27 107 -39 47 -12 104 -33 128 -47 23 -14 66 -28 94
-31 34 -4 59 -14 72 -28 14 -14 44 -25 91 -34 39 -7 90 -23 113 -36 24 -13 73
-32 110 -41 37 -9 81 -24 97 -34 17 -10 59 -26 95 -35 35 -9 77 -23 92 -31 15
-8 56 -20 90 -27 l63 -12 -1 -50 c0 -27 -5 -63 -11 -80 -32 -86 -35 -112 -64
-445 -6 -74 -15 -143 -20 -152 -5 -9 -9 -40 -9 -68 0 -28 -5 -61 -11 -72 -12
-22 -28 -181 -33 -323 -2 -49 -13 -128 -24 -175 -11 -47 -23 -125 -27 -175
-15 -235 -28 -381 -36 -396 -14 -28 -28 -137 -44 -349 -16 -219 -22 -264 -37
-294 -6 -10 -11 -32 -13 -50 -1 -17 -6 -53 -9 -81 -3 -27 -10 -118 -15 -200
-6 -83 -19 -197 -31 -253 -19 -96 -27 -171 -50 -457 -4 -60 -13 -121 -18 -135
-16 -39 -31 -170 -43 -365 -7 -118 -16 -195 -27 -225 -9 -25 -17 -61 -19 -80
-16 -217 -39 -439 -53 -505 -18 -89 -52 -398 -51 -460 1 -33 -5 -89 -13 -125
-32 -143 -49 -237 -50 -280 -1 -39 2 -45 25 -54 20 -7 40 -4 80 11 94 35 157
54 171 52 38 -8 253 28 334 56 23 8 93 19 155 24 105 9 164 21 244 49 17 6 93
18 169 27 77 8 145 20 150 24 13 10 47 16 218 36 70 8 145 22 165 31 36 15
197 44 328 59 33 4 82 15 110 25 27 10 103 24 168 30 65 6 148 21 185 32 37
11 105 24 152 28 84 8 138 19 234 47 28 8 93 19 145 24 108 11 206 31 270 53
24 9 58 16 75 16 32 0 183 23 271 41 48 10 167 27 192 28 7 1 20 12 29 26 15
23 15 29 1 68 -14 39 -23 167 -33 452 -4 127 -23 342 -36 395 -5 25 -11 143
-13 264 -2 127 -7 222 -13 228 -14 14 -72 5 -162 -25 -41 -13 -138 -34 -215
-47 -77 -12 -149 -27 -159 -32 -10 -6 -73 -18 -140 -28 -67 -10 -161 -28 -211
-39 -49 -12 -146 -30 -215 -40 -69 -11 -156 -28 -195 -39 -38 -12 -108 -26
-155 -32 -47 -7 -122 -21 -168 -31 -45 -11 -144 -29 -220 -40 -82 -12 -157
-30 -187 -43 -112 -51 -196 -54 -203 -8 -2 11 6 50 17 86 12 38 18 78 15 98
-4 21 2 53 16 88 21 55 26 101 50 435 5 72 14 146 19 165 15 47 29 172 41 369
11 170 33 352 46 372 9 15 33 348 34 464 0 70 4 96 17 115 19 26 31 127 53
445 6 88 15 171 20 185 5 14 15 75 21 135 6 61 15 151 20 200 5 50 13 142 18
206 4 63 12 122 16 129 10 17 20 112 35 340 11 165 16 199 44 340 8 41 24 188
36 327 11 139 27 287 34 330 8 43 19 146 26 228 11 154 24 277 41 400 23 158
30 229 43 416 8 108 18 205 24 215 5 11 15 75 21 144 7 69 16 147 22 173 5 27
9 76 9 110 1 90 26 332 38 353 6 11 15 89 22 174 10 144 18 229 40 435 4 44
12 98 18 120 6 22 16 137 22 255 9 157 17 230 30 270 17 50 35 231 45 455 1
39 10 95 19 125 17 60 31 194 46 455 6 94 15 180 20 193 11 24 40 215 39 247
-4 80 31 417 52 510 14 63 28 211 54 572 2 29 9 62 15 74 11 20 18 94 39 410
4 69 11 131 15 137 3 6 13 53 21 104 7 51 20 113 27 136 12 40 11 45 -7 58
-21 16 -22 16 -85 3z"/>
<path d="M6916 13361 c-8 -12 10 -57 34 -88 14 -18 17 -30 10 -43 -6 -11 -6
-50 1 -106 6 -49 12 -118 14 -154 9 -131 25 -258 36 -286 6 -16 15 -94 20
-174 16 -279 29 -396 49 -465 13 -45 20 -100 20 -155 0 -47 7 -157 15 -245 21
-227 24 -252 40 -330 13 -65 35 -290 41 -430 3 -61 17 -169 34 -260 6 -27 14
-129 20 -225 12 -215 25 -350 44 -438 8 -37 20 -166 26 -287 11 -197 18 -263
51 -465 4 -30 11 -100 14 -155 12 -228 27 -423 36 -465 5 -25 12 -63 15 -85 3
-22 8 -43 10 -46 1 -3 6 -55 9 -115 13 -262 26 -425 39 -499 21 -115 25 -154
42 -405 8 -124 19 -256 24 -295 5 -38 13 -106 19 -150 6 -44 17 -178 25 -299
9 -120 18 -227 21 -237 4 -10 11 -65 16 -121 6 -57 14 -141 19 -188 4 -47 18
-203 29 -348 12 -144 28 -294 36 -333 8 -39 15 -100 15 -137 0 -37 7 -132 15
-212 8 -80 17 -174 20 -210 4 -36 15 -117 25 -180 11 -63 18 -142 17 -175 -3
-90 22 -354 39 -404 7 -24 12 -47 9 -51 -3 -4 0 -43 5 -86 5 -44 14 -140 20
-214 15 -199 29 -346 40 -425 21 -140 30 -224 45 -450 9 -142 23 -261 35 -310
13 -53 23 -152 30 -295 6 -118 18 -237 25 -265 18 -61 33 -194 46 -380 14
-222 26 -320 40 -346 8 -15 17 -107 25 -245 6 -122 17 -230 23 -241 6 -12 13
-49 15 -84 3 -35 10 -80 16 -99 11 -38 21 -227 22 -433 1 -125 2 -129 25 -144
23 -15 28 -15 79 10 30 15 60 27 68 27 7 0 30 11 50 25 20 13 62 32 94 41 31
9 75 26 97 39 22 12 58 28 80 35 22 7 50 21 62 30 13 10 52 26 88 35 35 10 72
26 81 36 9 10 48 28 86 40 38 12 73 30 78 39 6 10 32 23 62 30 33 8 60 22 71
37 10 13 38 28 63 34 24 6 61 25 81 40 20 16 48 32 62 36 26 6 59 24 169 94
31 20 74 42 95 49 21 6 45 22 53 36 9 13 26 26 37 30 12 4 40 19 61 33 42 28
75 48 153 95 26 16 59 39 73 52 14 12 43 31 65 42 22 11 49 29 59 41 11 12 25
21 32 21 6 0 30 15 53 32 58 47 119 90 155 110 17 10 36 24 41 31 14 20 136
117 146 117 5 0 28 19 52 43 23 24 68 62 99 85 31 23 67 52 80 64 13 13 89 83
168 155 249 228 537 531 718 755 23 29 71 88 107 130 36 42 65 81 65 86 0 5
14 27 31 48 28 35 66 89 94 133 6 9 27 36 48 60 20 24 37 50 37 56 0 7 16 32
36 56 19 23 42 56 51 73 9 17 26 44 39 59 13 16 24 37 24 48 0 11 11 31 25 45
14 14 37 46 51 72 14 26 32 58 40 72 8 14 19 36 24 50 6 14 22 40 35 59 14 19
30 51 35 71 5 20 19 45 30 55 10 9 27 38 37 64 9 25 27 60 39 76 12 17 27 50
34 74 6 25 23 59 37 77 13 18 30 55 38 83 7 27 22 63 33 78 11 15 27 57 36 93
9 35 24 72 32 81 9 10 26 53 39 97 13 43 32 96 42 118 11 21 28 71 38 109 9
39 25 86 36 106 10 19 23 69 30 110 6 41 24 103 39 139 18 40 31 93 36 140 4
41 18 105 31 142 12 37 23 80 23 95 0 16 12 98 26 183 50 300 54 338 63 615
17 501 -1 1023 -38 1147 -11 34 -25 108 -31 163 -14 125 -27 194 -51 269 -10
33 -19 71 -19 85 0 39 -37 179 -53 204 -8 12 -16 47 -19 77 -2 30 -16 80 -31
110 -14 30 -33 84 -42 120 -16 65 -34 112 -60 161 -8 14 -17 46 -21 70 -4 24
-19 67 -34 94 -15 28 -33 73 -39 100 -7 28 -23 61 -37 75 -13 15 -28 46 -32
72 -5 25 -20 61 -34 79 -14 19 -33 57 -42 86 -10 28 -23 57 -31 63 -8 7 -24
37 -35 68 -12 32 -30 66 -40 77 -10 11 -28 46 -40 78 -12 31 -29 61 -39 66
-10 6 -23 28 -31 51 -7 22 -20 46 -28 52 -8 7 -24 35 -37 63 -12 27 -32 59
-44 69 -11 11 -21 24 -21 31 0 7 -13 30 -29 52 -16 22 -37 55 -46 74 -10 19
-26 40 -37 47 -10 7 -27 30 -38 50 -28 51 -87 134 -109 153 -10 8 -26 31 -36
50 -17 33 -40 62 -108 140 -18 20 -50 60 -72 89 -173 228 -553 624 -855 890
-91 80 -187 161 -214 180 -27 19 -60 47 -75 61 -44 44 -137 116 -158 123 -12
4 -24 13 -26 21 -3 7 -32 32 -64 54 -32 23 -78 57 -103 76 -25 19 -66 46 -92
60 -26 13 -53 33 -60 43 -7 11 -31 29 -53 41 -47 26 -98 60 -140 94 -16 13
-46 32 -65 42 -19 10 -48 28 -63 41 -16 13 -36 24 -46 24 -10 0 -28 12 -42 26
-13 15 -47 37 -74 49 -28 13 -57 30 -64 39 -8 9 -36 26 -62 37 -27 12 -54 28
-61 36 -7 8 -35 25 -64 38 -28 12 -55 28 -59 34 -4 7 -32 23 -63 37 -31 14
-66 33 -77 43 -11 10 -39 23 -62 31 -23 7 -51 23 -62 36 -11 13 -39 28 -63 34
-24 7 -52 20 -63 31 -11 10 -41 25 -65 34 -25 9 -61 26 -80 39 -19 13 -53 30
-75 37 -22 7 -53 24 -68 36 -15 12 -44 25 -65 29 -20 4 -55 20 -76 35 -22 16
-51 29 -63 29 -28 0 -77 24 -115 55 -14 12 -45 25 -69 29 -23 4 -56 17 -73 29
-17 12 -62 32 -99 44 -38 12 -76 28 -85 36 -9 9 -50 25 -91 36 -41 11 -81 27
-90 35 -9 8 -54 27 -101 41 -47 15 -92 33 -100 41 -9 7 -36 16 -60 20 -25 4
-70 20 -100 35 -30 16 -86 35 -124 43 -38 8 -81 24 -97 35 -16 12 -61 28 -101
35 -40 8 -101 24 -135 35 -64 22 -157 28 -167 12z m234 -136 c14 -8 35 -14 46
-15 12 0 32 -8 45 -19 25 -19 50 -27 134 -40 28 -5 78 -23 111 -40 34 -17 73
-31 87 -31 14 0 48 -11 75 -25 28 -14 57 -25 65 -25 22 0 119 -41 142 -60 11
-9 58 -29 105 -44 46 -15 91 -33 100 -40 8 -7 37 -18 63 -25 27 -6 90 -32 140
-56 50 -25 99 -45 108 -45 9 0 22 -6 28 -14 7 -8 25 -18 41 -21 15 -3 48 -19
73 -35 25 -16 71 -37 104 -47 32 -10 73 -28 92 -40 19 -13 39 -23 45 -23 13 0
125 -57 146 -75 8 -7 29 -16 47 -20 17 -3 37 -13 44 -21 7 -8 41 -28 75 -45
35 -16 68 -38 74 -49 8 -14 21 -20 46 -20 34 0 84 -35 84 -58 0 -5 17 -12 39
-16 21 -3 61 -22 89 -41 28 -19 79 -49 112 -67 34 -17 71 -43 81 -57 11 -14
32 -27 47 -29 15 -2 41 -12 57 -22 17 -11 57 -34 90 -51 33 -17 74 -46 90 -63
17 -18 64 -49 105 -70 41 -22 99 -61 128 -87 29 -27 73 -57 98 -68 24 -11 44
-24 44 -29 0 -6 25 -24 55 -41 30 -17 62 -42 70 -55 9 -13 29 -29 44 -36 44
-18 74 -54 66 -79 -5 -16 -2 -21 12 -21 11 0 23 4 29 10 11 11 145 -93 156
-122 4 -10 22 -26 40 -36 18 -9 49 -33 69 -52 20 -19 75 -66 123 -103 47 -38
121 -102 163 -143 98 -92 122 -114 129 -114 9 0 128 -132 146 -162 10 -16 29
-33 42 -38 13 -5 25 -13 27 -18 5 -13 101 -123 164 -187 75 -77 111 -119 125
-145 7 -13 52 -69 100 -124 48 -56 93 -112 100 -126 17 -33 57 -84 100 -129
41 -42 63 -86 55 -111 -4 -13 2 -19 24 -23 19 -4 32 -15 40 -34 18 -44 85
-150 114 -181 15 -15 27 -32 27 -38 0 -13 48 -102 66 -122 26 -28 94 -150 94
-167 0 -24 27 -72 44 -78 8 -3 20 -25 27 -49 7 -24 34 -79 61 -124 26 -45 48
-90 48 -101 0 -10 7 -28 15 -39 8 -10 15 -26 15 -35 0 -9 7 -22 15 -29 8 -7
15 -20 15 -30 0 -10 7 -23 15 -30 8 -7 15 -21 15 -31 0 -11 5 -29 12 -42 23
-45 28 -57 28 -68 0 -7 12 -37 26 -68 24 -49 45 -102 90 -224 8 -21 18 -66 23
-100 5 -34 22 -84 37 -112 15 -28 29 -71 31 -99 2 -27 15 -70 28 -97 17 -32
25 -66 26 -101 1 -73 21 -162 42 -185 9 -11 17 -35 17 -54 1 -19 5 -54 11 -79
5 -25 14 -84 19 -132 5 -48 19 -133 30 -190 21 -99 36 -336 33 -488 -1 -36 -4
-227 -6 -425 -5 -352 -10 -427 -42 -570 -8 -38 -15 -85 -15 -103 0 -18 -5 -43
-11 -54 -6 -11 -12 -53 -13 -92 -2 -48 -11 -95 -29 -144 -15 -40 -27 -92 -27
-115 -1 -55 -24 -163 -40 -182 -6 -8 -9 -19 -5 -24 3 -6 -1 -21 -9 -33 -8 -13
-20 -52 -26 -88 -6 -36 -17 -76 -25 -90 -7 -14 -16 -41 -20 -60 -19 -93 -60
-218 -81 -246 -13 -17 -24 -43 -24 -59 0 -15 -9 -44 -19 -64 -23 -43 -35 -71
-91 -216 -24 -60 -52 -120 -62 -131 -11 -12 -25 -43 -33 -70 -17 -66 -92 -221
-110 -232 -8 -4 -24 -35 -36 -67 -11 -33 -31 -70 -45 -83 -13 -13 -24 -31 -24
-41 0 -11 -18 -43 -40 -72 -22 -30 -40 -59 -40 -65 0 -6 -13 -25 -29 -42 -17
-17 -33 -46 -36 -65 -4 -19 -21 -51 -38 -70 -18 -19 -43 -52 -57 -72 -14 -20
-40 -50 -57 -67 -18 -17 -33 -41 -33 -53 0 -12 -11 -37 -24 -56 -14 -19 -46
-68 -73 -109 -26 -41 -60 -88 -76 -104 -15 -15 -40 -45 -54 -65 -26 -34 -46
-59 -126 -154 -18 -21 -57 -66 -89 -100 -31 -34 -74 -85 -97 -114 -22 -28
-123 -135 -224 -237 -142 -143 -193 -189 -221 -197 -20 -5 -36 -16 -36 -23 0
-22 -93 -126 -112 -126 -10 0 -24 -13 -32 -28 -8 -15 -26 -34 -40 -42 -14 -7
-33 -24 -41 -36 -8 -13 -31 -31 -50 -40 -20 -9 -58 -38 -86 -64 -27 -27 -69
-58 -94 -70 -25 -12 -50 -30 -55 -40 -12 -23 -95 -80 -116 -80 -9 0 -18 -9
-21 -20 -7 -25 -178 -150 -205 -150 -10 0 -21 -6 -24 -14 -3 -8 -32 -31 -63
-51 -32 -20 -69 -47 -81 -61 -13 -13 -29 -24 -36 -24 -7 0 -25 -11 -41 -24
-15 -13 -50 -35 -78 -49 -27 -14 -74 -41 -103 -60 -28 -20 -62 -39 -75 -43
-12 -4 -28 -15 -34 -24 -7 -10 -28 -21 -47 -24 -19 -4 -36 -12 -39 -20 -3 -7
-40 -31 -84 -54 -43 -23 -89 -48 -103 -56 -58 -32 -276 -136 -287 -136 -20 0
-108 -41 -128 -60 -11 -11 -38 -26 -60 -33 -22 -8 -69 -28 -105 -44 -98 -45
-119 -53 -139 -53 -10 0 -27 -11 -40 -24 -12 -12 -41 -29 -64 -36 -23 -6 -60
-18 -82 -26 -67 -23 -103 -12 -74 22 10 12 10 23 2 47 -17 48 -22 82 -28 197
-2 58 -9 132 -15 165 -14 86 -30 208 -41 300 -4 44 -13 99 -19 122 -6 24 -8
60 -4 80 3 21 -2 79 -11 128 -9 56 -13 111 -9 146 4 37 2 59 -5 63 -6 4 -11
25 -11 46 0 21 -5 51 -10 65 -6 15 -13 75 -15 133 -6 111 -28 311 -45 397 -10
51 -33 273 -32 310 0 11 3 39 7 61 5 29 2 57 -9 90 -8 27 -18 76 -22 109 -3
33 -10 73 -15 89 -9 27 -23 193 -35 391 -2 44 -13 145 -24 225 -22 158 -40
323 -44 410 -4 67 -13 200 -22 300 -3 41 -15 116 -26 165 -12 57 -21 140 -23
225 -3 150 -20 343 -35 405 -16 70 -30 205 -36 370 -5 158 -15 259 -34 365
-16 90 -30 207 -35 294 -2 44 -9 117 -15 161 -5 44 -15 150 -21 235 -6 85 -15
160 -20 166 -5 6 -10 83 -10 170 -1 87 -6 170 -11 182 -4 13 -15 92 -24 175
-9 84 -20 179 -25 212 -5 33 -11 116 -14 185 -3 69 -9 141 -12 160 -4 19 -5
73 -4 120 1 61 -5 119 -24 205 -18 82 -29 177 -36 300 -13 244 -15 261 -37
410 -11 72 -23 191 -27 265 -4 74 -9 162 -12 195 -2 33 -6 101 -8 150 -2 50
-13 132 -24 184 -25 117 -43 308 -35 369 3 28 -1 84 -11 137 -9 50 -20 131
-25 180 -5 50 -13 101 -18 115 -5 14 -10 66 -9 115 0 50 -14 189 -31 310 -17
121 -31 231 -31 245 0 14 -7 95 -15 180 -8 85 -18 204 -21 265 -4 60 -9 113
-12 118 -12 20 -45 294 -45 382 0 28 3 73 7 100 6 41 4 56 -13 85 -13 22 -23
62 -27 110 -3 41 -12 131 -20 200 -8 69 -19 172 -25 230 -6 58 -15 139 -21
180 -6 41 -12 112 -14 158 -2 45 -7 87 -10 92 -3 5 -8 54 -11 109 -4 88 -3
101 13 110 24 14 43 13 73 -4z"/>
<path d="M8458 11539 c-32 -18 -20 -37 35 -53 38 -12 61 -26 84 -55 20 -24 44
-41 65 -45 18 -3 44 -17 58 -30 14 -12 41 -29 60 -36 19 -7 44 -21 55 -31 11
-10 38 -26 60 -35 22 -9 55 -29 73 -45 18 -16 39 -29 47 -29 7 0 34 -16 59
-35 26 -19 50 -35 54 -35 9 0 106 -71 140 -103 12 -11 37 -30 56 -41 69 -43
239 -176 311 -244 11 -10 63 -56 115 -103 115 -102 325 -311 400 -397 30 -35
71 -80 90 -100 20 -20 53 -59 75 -87 22 -27 68 -82 102 -121 35 -39 63 -76 63
-81 0 -6 7 -17 17 -24 16 -14 59 -75 120 -171 18 -28 41 -60 52 -72 18 -20
171 -245 171 -252 0 -2 18 -31 40 -65 22 -34 40 -68 40 -75 0 -7 11 -25 24
-41 13 -15 35 -51 49 -79 14 -27 32 -56 41 -63 8 -7 20 -29 27 -49 6 -20 22
-52 36 -69 13 -18 30 -54 38 -79 8 -26 25 -58 38 -73 14 -14 27 -42 31 -62 4
-20 20 -54 36 -74 17 -21 30 -48 30 -61 0 -13 14 -44 31 -69 17 -26 35 -64 40
-85 5 -21 20 -56 34 -76 14 -20 29 -53 35 -73 5 -20 23 -50 40 -66 25 -24 30
-37 30 -76 l0 -47 -77 -7 c-58 -5 -88 -13 -116 -31 -21 -14 -64 -29 -94 -34
-31 -5 -72 -20 -92 -34 -20 -13 -61 -29 -91 -36 -30 -7 -75 -25 -100 -40 -25
-15 -67 -31 -95 -35 -27 -4 -63 -17 -80 -29 -16 -12 -60 -30 -97 -40 -37 -10
-81 -28 -98 -41 -18 -13 -53 -26 -85 -30 -36 -4 -67 -16 -95 -36 -24 -18 -59
-32 -88 -36 -26 -3 -64 -17 -86 -30 -21 -14 -63 -31 -94 -39 -31 -8 -70 -23
-86 -33 -17 -11 -57 -27 -88 -36 -32 -9 -84 -29 -115 -45 -31 -16 -75 -32 -97
-35 -23 -4 -59 -19 -81 -35 -24 -16 -65 -33 -99 -39 -32 -6 -72 -19 -90 -30
-17 -11 -58 -27 -91 -36 -33 -10 -71 -26 -85 -37 -14 -10 -51 -22 -82 -28 -46
-7 -64 -16 -99 -49 -35 -35 -48 -41 -85 -41 -36 0 -47 5 -60 25 -15 23 -15 32
-4 81 11 47 11 61 0 92 -8 20 -15 71 -16 112 -3 114 -32 403 -49 484 -9 39
-20 139 -25 221 -13 202 -29 348 -46 415 -8 30 -19 127 -24 215 -6 88 -15 180
-20 205 -5 25 -9 70 -10 100 0 31 -8 80 -19 110 -12 35 -21 100 -25 180 -15
276 -24 356 -43 393 -8 16 -12 35 -10 42 3 7 2 30 -3 51 -5 22 -11 89 -14 149
-11 196 -27 348 -46 435 -10 47 -23 170 -30 274 -6 104 -20 230 -30 280 -11
50 -22 143 -26 206 -6 120 -30 222 -64 278 -22 36 -32 39 -50 17 -9 -11 -11
-31 -5 -73 4 -31 9 -84 10 -117 6 -180 28 -391 45 -425 8 -15 25 -177 40 -395
5 -66 14 -138 20 -160 14 -47 26 -153 34 -283 3 -51 7 -96 10 -100 2 -4 7 -58
10 -120 4 -62 11 -136 16 -164 19 -100 40 -304 40 -394 0 -58 7 -119 20 -169
11 -43 20 -95 20 -116 0 -21 5 -50 11 -66 6 -15 13 -82 16 -148 4 -112 20
-243 42 -360 25 -125 31 -175 31 -246 0 -111 28 -387 42 -412 10 -18 45 -411
47 -526 1 -28 11 -44 56 -87 34 -33 69 -57 92 -63 53 -14 140 -8 156 11 15 19
70 38 109 38 17 0 36 9 49 24 12 13 33 27 48 31 29 7 143 51 181 70 14 7 43
16 65 19 22 4 59 18 82 32 23 13 64 29 92 35 28 6 66 21 85 34 37 25 115 55
144 55 9 0 40 14 67 30 28 16 60 30 71 30 12 0 48 14 79 30 31 17 68 30 81 30
13 0 44 13 70 29 45 29 156 61 209 61 17 0 37 11 55 30 15 17 37 30 47 30 10
0 37 9 58 21 22 11 74 33 115 49 41 15 102 39 135 54 33 14 71 26 85 26 14 0
42 11 62 25 24 16 51 25 76 25 26 0 52 9 77 26 21 14 70 37 109 51 39 14 80
36 91 48 11 12 30 27 41 33 45 24 32 150 -28 282 -16 36 -37 81 -45 100 -22
50 -38 86 -71 160 -16 36 -37 71 -46 79 -9 7 -16 22 -16 33 0 11 -18 51 -40
89 -23 38 -47 87 -55 110 -8 22 -24 53 -35 69 -11 15 -20 35 -20 43 0 9 -4 19
-10 22 -5 3 -19 28 -31 55 -11 27 -36 62 -55 79 -19 18 -34 40 -34 49 0 10
-13 36 -30 58 -16 21 -30 46 -30 55 0 8 -15 33 -33 55 -38 46 -55 71 -98 150
-17 32 -50 81 -74 109 -52 60 -125 173 -125 191 0 8 -10 20 -23 29 -13 8 -31
33 -41 55 -9 22 -30 48 -45 59 -15 11 -48 46 -72 78 -24 32 -66 83 -94 114
-27 30 -66 75 -85 99 -19 23 -43 51 -53 60 -11 10 -24 23 -30 30 -7 7 -31 31
-53 54 -23 22 -47 51 -53 64 -7 12 -17 22 -23 22 -6 0 -36 26 -65 58 -61 65
-59 63 -105 107 -19 17 -41 36 -50 41 -8 5 -37 34 -63 64 -27 30 -61 60 -77
67 -15 6 -61 41 -103 77 -41 36 -80 66 -85 66 -6 0 -25 15 -43 34 -18 19 -46
43 -63 53 -63 37 -110 71 -159 115 -27 25 -79 60 -115 78 -36 18 -69 39 -73
46 -4 7 -38 28 -75 45 -37 18 -88 47 -113 64 -25 18 -55 36 -67 39 -12 4 -40
23 -63 42 -22 19 -49 34 -59 34 -10 0 -44 14 -75 30 -58 31 -106 37 -137 19z"/>
<path d="M11675 6956 c-34 -15 -100 -34 -161 -45 -22 -4 -55 -18 -73 -30 -17
-13 -61 -29 -98 -37 -36 -7 -86 -27 -113 -44 -30 -19 -60 -30 -84 -30 -21 0
-52 -10 -75 -24 -56 -36 -264 -116 -299 -116 -40 0 -82 -16 -105 -41 -10 -10
-28 -19 -41 -19 -12 0 -49 -13 -82 -29 -57 -29 -100 -45 -234 -92 -36 -12 -83
-30 -106 -41 -23 -10 -59 -18 -80 -18 -28 0 -43 -6 -51 -19 -7 -11 -27 -24
-45 -30 -18 -5 -64 -23 -103 -39 -38 -16 -89 -31 -112 -34 -24 -4 -64 -20 -90
-37 -26 -17 -65 -36 -87 -42 -23 -6 -68 -23 -102 -39 -33 -15 -85 -33 -115
-40 -53 -12 -153 -52 -279 -114 -48 -23 -72 -42 -94 -75 -28 -42 -28 -44 -11
-57 17 -13 15 -14 -23 -14 -26 0 -44 -5 -46 -12 -2 -7 -8 -28 -14 -45 -10 -33
-9 -40 28 -168 13 -44 30 -191 30 -258 0 -32 7 -122 15 -200 47 -445 56 -544
65 -657 5 -69 10 -159 10 -201 0 -45 6 -91 15 -113 16 -37 34 -214 40 -391 9
-244 14 -305 34 -390 11 -49 20 -106 19 -125 0 -19 2 -62 5 -95 4 -33 11 -149
17 -259 6 -109 15 -206 20 -216 6 -10 10 -33 10 -51 0 -18 4 -46 9 -63 10 -30
31 -267 35 -396 3 -63 17 -107 40 -122 20 -14 26 -8 26 26 0 18 6 51 14 72 19
56 -5 499 -35 634 -15 67 -22 142 -25 255 -3 88 -9 184 -14 214 -6 30 -10 77
-10 105 0 28 -9 105 -20 171 -11 66 -27 232 -35 370 -9 137 -20 279 -25 315
-12 80 -13 88 -33 330 -27 321 -57 604 -71 680 -3 14 -8 104 -11 200 -3 96
-10 195 -15 220 -18 88 -29 173 -24 182 9 15 58 36 97 42 21 3 59 17 85 30 26
12 63 26 82 30 19 3 50 17 70 31 19 13 67 31 106 39 39 8 87 25 107 39 21 14
60 30 87 36 28 6 67 22 88 35 20 13 57 27 82 31 25 4 63 17 85 29 22 12 67 30
100 40 33 10 86 31 117 47 31 16 67 29 80 29 13 0 56 16 94 35 39 19 93 40
120 47 27 7 69 25 93 40 28 17 59 28 81 28 23 0 53 10 81 29 26 17 69 33 106
39 34 6 79 22 100 36 21 14 60 30 86 36 27 6 58 17 70 24 12 8 51 23 87 34 36
11 94 34 130 51 36 17 72 31 81 31 22 0 86 27 94 39 3 6 35 19 71 30 36 11 79
30 97 44 18 13 48 27 67 31 33 6 36 4 47 -24 8 -20 8 -43 1 -72 -5 -25 -8
-162 -5 -333 6 -352 -9 -748 -29 -787 -13 -26 -19 -57 -48 -263 -7 -49 -29
-150 -50 -223 -20 -74 -36 -141 -36 -150 0 -9 -7 -26 -15 -36 -8 -10 -22 -53
-31 -95 -9 -42 -24 -90 -34 -108 -10 -17 -30 -71 -45 -119 -15 -49 -35 -99
-46 -112 -10 -13 -21 -40 -25 -61 -3 -20 -17 -52 -31 -73 -13 -20 -31 -57 -38
-83 -8 -25 -28 -63 -45 -83 -17 -20 -30 -48 -30 -63 0 -16 -14 -44 -35 -69
-19 -23 -35 -51 -35 -63 0 -11 -12 -36 -27 -56 -33 -42 -75 -111 -101 -166
-11 -22 -30 -54 -44 -70 -14 -17 -35 -49 -46 -72 -12 -23 -26 -45 -32 -48 -6
-4 -22 -23 -36 -43 -13 -21 -45 -64 -69 -97 -25 -33 -57 -78 -71 -100 -24 -35
-134 -174 -199 -250 -14 -16 -48 -57 -77 -90 -181 -213 -523 -558 -760 -767
-48 -42 -122 -113 -165 -157 -51 -52 -94 -87 -125 -100 -51 -21 -65 -51 -25
-51 57 1 136 29 189 68 31 23 60 46 63 52 4 6 18 15 31 20 13 5 28 20 33 32 5
13 24 34 42 48 78 61 171 143 185 165 8 13 26 26 40 29 13 4 24 11 24 16 0 5
20 29 45 54 25 26 45 51 45 56 0 6 6 10 14 10 8 0 36 23 63 52 26 28 112 116
191 196 78 80 142 148 142 153 0 5 28 41 63 81 35 40 84 101 111 136 26 34 59
70 72 78 13 9 24 21 24 28 0 6 18 33 40 60 22 26 40 53 40 58 0 6 20 33 45 60
25 28 45 55 45 60 0 6 12 25 28 44 65 80 110 151 172 274 10 19 30 46 44 59
14 14 26 30 26 36 0 15 67 144 85 165 7 8 29 49 49 90 20 41 45 91 56 110 34
62 80 168 80 184 0 9 11 37 24 63 36 71 50 108 86 217 17 55 40 115 51 135 10
20 19 45 19 56 0 11 13 63 29 115 16 52 34 118 39 145 6 28 15 68 20 90 5 22
19 85 31 140 12 55 27 120 32 145 6 25 12 70 15 100 2 30 7 87 10 125 11 104
11 184 4 595 -8 416 -2 383 -83 503 -40 61 -45 63 -92 43z"/>
<path d="M5013 11549 c-18 -5 -49 -21 -69 -34 -20 -14 -43 -25 -50 -25 -7 0
-21 -11 -32 -24 -10 -14 -39 -33 -63 -42 -24 -10 -64 -35 -88 -56 -24 -21 -51
-38 -61 -38 -9 0 -25 -9 -34 -19 -10 -10 -33 -22 -52 -25 -19 -4 -34 -11 -34
-15 0 -16 -51 -59 -77 -66 -27 -6 -46 -20 -135 -92 -29 -24 -57 -43 -64 -43
-6 0 -33 -17 -60 -39 -27 -21 -67 -48 -89 -59 -22 -11 -72 -50 -111 -86 -39
-36 -83 -68 -97 -71 -15 -4 -29 -15 -32 -25 -3 -11 -15 -22 -26 -25 -10 -4
-19 -10 -19 -15 0 -4 -19 -20 -42 -34 -24 -14 -69 -49 -100 -78 -31 -29 -87
-78 -123 -108 -37 -30 -97 -84 -135 -120 -37 -36 -82 -78 -99 -93 -17 -16 -31
-35 -31 -42 0 -19 -45 -52 -81 -60 -21 -5 -35 -18 -51 -48 -22 -44 -63 -96
-168 -213 -36 -39 -69 -78 -75 -86 -5 -7 -33 -40 -61 -73 -27 -33 -61 -76 -74
-95 -13 -19 -44 -58 -69 -87 -25 -28 -61 -78 -81 -111 -19 -32 -44 -73 -55
-91 -11 -19 -37 -55 -57 -82 -21 -27 -38 -52 -38 -57 0 -5 -13 -26 -30 -47
-16 -21 -30 -42 -30 -47 0 -5 -10 -24 -23 -41 -12 -18 -27 -41 -33 -52 -6 -11
-20 -24 -31 -29 -14 -7 -23 -23 -27 -48 -4 -23 -20 -53 -40 -76 -19 -21 -37
-49 -40 -62 -2 -14 -7 -37 -10 -52 -4 -15 -22 -44 -41 -65 -19 -21 -35 -43
-35 -49 0 -7 -13 -38 -30 -69 -16 -31 -30 -65 -30 -76 0 -10 -13 -33 -28 -51
-16 -18 -45 -73 -66 -123 -21 -49 -47 -104 -57 -121 -10 -17 -19 -37 -19 -45
0 -7 -10 -37 -22 -66 l-21 -52 29 -47 c16 -26 38 -48 49 -50 11 -2 21 -8 23
-14 7 -20 34 -40 55 -40 12 0 62 -20 111 -45 49 -25 100 -45 113 -45 13 0 52
-13 86 -28 34 -16 83 -35 110 -42 26 -7 50 -17 53 -21 3 -5 19 -9 36 -9 16 0
41 -9 55 -20 14 -11 38 -20 54 -20 27 0 72 -16 131 -46 14 -8 34 -14 43 -14
10 0 59 -20 109 -45 50 -24 129 -53 175 -64 46 -11 120 -38 165 -59 44 -21
115 -50 156 -62 41 -13 86 -30 100 -37 14 -7 33 -13 43 -13 16 0 161 -53 232
-85 17 -8 64 -25 105 -39 176 -59 327 -115 360 -133 19 -12 73 -30 120 -43 47
-12 103 -30 126 -41 22 -10 48 -19 58 -19 26 0 74 28 86 50 6 11 17 20 24 20
41 0 93 242 102 480 3 63 9 137 14 163 6 26 10 72 10 102 0 35 5 59 16 69 11
12 18 54 25 173 11 176 31 362 55 528 9 61 16 133 15 160 -1 61 39 379 53 415
3 8 12 109 21 224 9 115 21 218 26 228 6 11 15 74 20 141 5 67 11 138 13 157
2 19 11 112 21 205 10 94 22 179 28 190 6 11 17 94 24 185 7 91 15 185 17 210
3 25 7 87 10 139 4 51 9 98 13 104 21 35 39 158 47 331 5 93 3 116 -14 153
-19 44 -40 57 -40 26 0 -10 -9 -40 -19 -68 -10 -27 -22 -90 -26 -140 -3 -49
-15 -124 -25 -165 -23 -94 -37 -211 -50 -415 -5 -88 -16 -182 -24 -210 -16
-52 -46 -322 -46 -410 0 -27 -13 -131 -29 -230 -16 -99 -32 -229 -35 -290 -10
-186 -27 -328 -43 -370 -18 -48 -38 -276 -35 -397 1 -69 -2 -98 -19 -140 -17
-43 -25 -102 -40 -303 -10 -137 -25 -272 -33 -300 -8 -27 -14 -59 -14 -70 1
-11 -4 -58 -10 -105 -6 -47 -16 -146 -22 -220 -6 -74 -16 -164 -21 -200 -21
-125 -28 -205 -22 -252 11 -98 -52 -130 -125 -63 -41 37 -80 55 -116 55 -13 0
-48 13 -79 30 -31 16 -68 30 -81 30 -13 0 -50 14 -82 31 -33 17 -84 35 -114
40 -30 6 -72 21 -92 35 -21 13 -59 29 -85 35 -27 7 -84 27 -128 44 -44 18 -97
36 -119 40 -21 3 -55 17 -75 30 -20 13 -63 31 -96 39 -33 7 -75 21 -92 31 -18
9 -62 25 -98 35 -36 10 -81 28 -99 39 -19 12 -60 26 -92 33 -33 6 -69 20 -80
30 -12 11 -55 28 -96 39 -41 10 -95 30 -119 43 -24 13 -69 29 -100 35 -31 5
-73 21 -92 34 -22 15 -59 27 -92 32 -35 4 -74 18 -103 36 -26 15 -78 35 -115
43 -37 7 -76 21 -86 30 -17 16 -133 45 -178 46 -28 0 -53 36 -53 75 0 23 10
41 40 70 21 21 42 51 45 66 4 16 18 45 32 66 14 21 32 58 39 84 8 25 23 54 34
64 10 9 24 34 30 54 16 50 39 99 50 106 5 3 20 29 34 58 15 28 33 63 41 77 8
14 24 45 35 70 35 75 64 125 91 161 14 19 29 44 33 56 4 13 23 41 42 64 19 22
34 47 34 55 0 7 14 29 30 47 17 19 30 39 30 45 0 5 17 33 38 60 20 28 45 64
55 79 9 15 37 55 62 88 24 33 64 86 87 118 73 99 82 111 108 139 14 15 39 44
57 65 266 316 630 676 794 788 24 17 55 41 69 55 14 14 50 43 79 65 30 22 73
56 97 75 23 19 68 53 99 75 31 22 70 52 88 68 17 15 36 27 42 27 6 0 26 13 45
29 19 15 54 38 77 49 23 12 45 26 48 32 4 6 28 22 55 35 27 14 54 34 59 44 6
10 25 24 42 30 17 6 44 22 61 36 17 14 44 32 62 40 17 9 47 27 66 41 19 14 48
28 63 31 15 3 35 15 45 27 9 12 33 31 52 43 19 12 51 38 70 58 19 19 51 40 72
46 42 11 50 34 16 44 -44 13 -53 13 -85 4z"/>
</g>
</svg>
